<svg width="129" height="127" viewBox="0 0 129 127" fill="none" xmlns="http://www.w3.org/2000/svg">
<path d="M127.5 104L113.96 90C113.96 90 99 74.5 95.5 72.5C92 70.5 87.5 72.5 87.5 72.5C84.236 64 92.5 58.508 92.5 48.5C92.5 28.5 80.736 0 46.5 0C22.5 0 0.5 16.28 0.5 45C0.5 73.72 24.5 92.5 48 91C63.5 91 68 83 72.5 86C72.5 86 70 89 72.5 92.5C75 96 84.236 105.196 84.236 105.196L105 125.5C108.112 128.612 114.732 125.276 117.844 122.164L123.5 116.508C126.612 113.396 130.612 107.112 127.5 104ZM20.5 69C13.7 62.2 10 52.116 10 42.5C10 32.884 13.7 25.3 20.5 18.5C27.3 11.7 35.884 8.00001 45.5 8.00001C55.116 8.00001 64.2 10.2 71 17C77.8 23.8 82 36.884 82 46.5C82 56.116 79.3 62.2 72.5 69C65.7 75.8 56.116 80.5 46.5 80.5C36.884 80.5 27.3 75.8 20.5 69Z" fill="black"/>
</svg>
