<svg width="24" height="24" viewBox="0 0 24 24" fill="none" xmlns="http://www.w3.org/2000/svg">
<path d="M10.6281 14.1601L15.4742 9.31397M20.4316 6.35645L16.341 19.651C15.9744 20.8425 15.7909 21.4385 15.4748 21.636C15.2005 21.8074 14.8609 21.836 14.5623 21.7121C14.2178 21.5692 13.9383 21.0111 13.3807 19.8958L10.7897 14.7139C10.7012 14.5369 10.6569 14.4488 10.5978 14.3721C10.5453 14.304 10.4848 14.2427 10.4168 14.1903C10.3418 14.1325 10.2552 14.0892 10.0861 14.0046L4.89224 11.4077C3.77693 10.8501 3.21923 10.571 3.07632 10.2266C2.95238 9.92787 2.98064 9.588 3.152 9.31375C3.34959 8.99751 3.94555 8.8138 5.13735 8.44709L18.4319 4.35645C19.3689 4.06815 19.8376 3.92412 20.154 4.0403C20.4297 4.1415 20.647 4.35861 20.7482 4.63428C20.8644 4.9506 20.7202 5.41904 20.4322 6.35506L20.4316 6.35645Z" stroke="white" stroke-width="2" stroke-linecap="round" stroke-linejoin="round"/>
</svg>
